<svg width="40" height="40" viewBox="0 0 40 40" fill="none" xmlns="http://www.w3.org/2000/svg">
  <g transform="translate(6, 0)">
    <path
        d="M28 35.0162C28 35.5422 27.779 36.0467 27.385 36.4186C26.991 36.7906 26.457 36.9995 25.9 36.9995H24.1C23.543 36.9995 23.009 36.7906 22.615 36.4186C22.221 36.0467 22 35.5422 22 35.0162V4.98279C22 4.45679 22.221 3.95234 22.615 3.5804C23.009 3.20846 23.543 2.99951 24.1 2.99951H25.9C26.457 2.99951 26.991 3.20846 27.385 3.5804C27.779 3.95234 28 4.45679 28 4.98279V35.0162Z"
        fill="url(#paint0_linear)"/>
    <path
        d="M17 15.075C17 15.5855 16.779 16.0752 16.385 16.4362C15.991 16.7972 15.457 17 14.9 17H13.1003C12.5433 17 12.0091 16.7972 11.6152 16.4362C11.2213 16.0752 11 15.5855 11 15.075V7.92504C11 7.41449 11.2213 6.92485 11.6152 6.56383C12.0091 6.20282 12.5433 6 13.1003 6H14.9C15.457 6 15.991 6.20282 16.385 6.56383C16.779 6.92485 17 7.41449 17 7.92504V15.075Z"
        fill="url(#paint1_linear)"/>
    <path
        d="M5.9973 26.9001C5.9973 27.457 5.776 27.9911 5.3821 28.3849C4.9882 28.7788 4.454 29 3.8969 29H2.0994C1.5423 29 1.0081 28.7788 0.6142 28.3849C0.2203 27.9911 -0.001 27.457 -0.001 26.9001V13.0999C-0.001 12.543 0.2203 12.0089 0.6142 11.6151C1.0081 11.2212 1.5423 11 2.0994 11H3.8987C4.4557 11 4.99 11.2212 5.3838 11.6151C5.7777 12.0089 5.999 12.543 5.999 13.0999L5.9973 26.9001Z"
        fill="url(#paint2_linear)"/>
    <path
        d="M17 32.0745C17 32.585 16.779 33.0747 16.385 33.4357C15.991 33.7967 15.457 33.9995 14.9 33.9995H13.1003C12.5433 33.9995 12.0091 33.7967 11.6152 33.4357C11.2213 33.0747 11 32.585 11 32.0745V24.9246C11 24.414 11.2213 23.9244 11.6152 23.5633C12.0091 23.2023 12.5433 22.9995 13.1003 22.9995H14.9C15.457 22.9995 15.991 23.2023 16.385 23.5633C16.779 23.9244 17 24.414 17 24.9246V32.0745Z"
        fill="url(#paint3_linear)"/>
  </g>
  <defs>
    <linearGradient id="paint0_linear" x1="26.078" y1="10.883" x2="36.196" y2="20.7152" gradientUnits="userSpaceOnUse">
      <stop stop-color="#564DE2"/>
      <stop offset="1" stop-color="#68AEFF"/>
    </linearGradient>
    <linearGradient id="paint1_linear" x1="11" y1="0.415779" x2="20.549" y2="8.95224" gradientUnits="userSpaceOnUse">
      <stop stop-color="#6C63FF"/>
      <stop offset="1" stop-color="#7AB7FE"/>
    </linearGradient>
    <linearGradient id="paint2_linear" x1="4.345" y1="32.2707" x2="-7.4204" y2="22.5947" gradientUnits="userSpaceOnUse">
      <stop stop-color="#4BFFDF"/>
      <stop offset="1" stop-color="#7AB7FE"/>
    </linearGradient>
    <linearGradient id="paint3_linear" x1="15.959" y1="40.3554" x2="5.5883" y2="29.6469" gradientUnits="userSpaceOnUse">
      <stop stop-color="#4BFFDF"/>
      <stop offset="1" stop-color="#4D9FFF"/>
    </linearGradient>
  </defs>
</svg>
