<svg width="24" height="24" viewBox="0 0 24 24" fill="none" xmlns="http://www.w3.org/2000/svg">
  <g clip-path="url(#clip0)">
    <path d="M7.6275 1.3725L1.3725 7.6275C0.495 8.505 0 9.6975 0 10.9425V22.125C0 23.16 0.84 24 1.875 24H13.0575C14.3025 24 15.49125 23.505 16.3725 22.6275L22.6275 16.3725C23.505 15.495 24 14.3025 24 13.0575V1.875C24 0.84 23.16 0 22.125 0H10.9425C9.6975 0 8.50875 0.495 7.6275 1.3725Z" fill="url(#paint0_linear)"/>
    <path d="M18 6H3V21H18V6Z" fill="black"/>
    <path d="M11.25 17.625H4.875V19.125H11.25V17.625Z" fill="white"/>
  </g>
  <defs>
    <linearGradient id="paint0_linear" x1="20.8155" y1="3.375" x2="3.003" y2="20.8155" gradientUnits="userSpaceOnUse">
      <stop stop-color="#B74AF7"/>
      <stop offset="1" stop-color="#21D789"/>
    </linearGradient>
    <clipPath id="clip0">
      <rect width="24" height="24" fill="white"/>
    </clipPath>
  </defs>
</svg>
